HIERARCHY
ROOT Hips
{
	OFFSET 0.00000 0.00000 0.00000
	CHANNELS 6 Xposition Yposition Zposition Zrotation Yrotation Xrotation 
	JOINT LHipJoint
	{
		OFFSET 0 0 0
		CHANNELS 3 Zrotation Yrotation Xrotation
		JOINT LeftUpLeg
		{
			OFFSET 1.43652 -1.81092 0.91346
			CHANNELS 3 Zrotation Yrotation Xrotation
			JOINT LeftLeg
			{
				OFFSET 2.45984 -6.75837 0.00000
				CHANNELS 3 Zrotation Yrotation Xrotation
				JOINT LeftFoot
				{
					OFFSET 2.63718 -7.24559 0.00000
					CHANNELS 3 Zrotation Yrotation Xrotation
					JOINT LeftToeBase
					{
						OFFSET 0.19690 -0.54098 2.12239
						CHANNELS 3 Zrotation Yrotation Xrotation
						End Site
						{
							OFFSET 0.00000 -0.00000 1.10116
						}
					}
				}
			}
		}
	}
	JOINT RHipJoint
	{
		OFFSET 0 0 0
		CHANNELS 3 Zrotation Yrotation Xrotation
		JOINT RightUpLeg
		{
			OFFSET -1.35116 -1.81092 0.91345
			CHANNELS 3 Zrotation Yrotation Xrotation
			JOINT RightLeg
			{
				OFFSET -2.55576 -7.02189 0.00000
				CHANNELS 3 Zrotation Yrotation Xrotation
				JOINT RightFoot
				{
					OFFSET -2.61938 -7.19669 0.00000
					CHANNELS 3 Zrotation Yrotation Xrotation
					JOINT RightToeBase
					{
						OFFSET -0.32509 -0.89318 2.23646
						CHANNELS 3 Zrotation Yrotation Xrotation
						End Site
						{
							OFFSET -0.00000 -0.00000 1.19625
						}
					}
				}
			}
		}
	}
	JOINT LowerBack
	{
		OFFSET 0 0 0
		CHANNELS 3 Zrotation Yrotation Xrotation
		JOINT Spine
		{
			OFFSET 0.05193 2.08077 -0.11958
			CHANNELS 3 Zrotation Yrotation Xrotation
			JOINT Spine1
			{
				OFFSET 0.04960 2.08447 0.01967
				CHANNELS 3 Zrotation Yrotation Xrotation
				JOINT Neck
				{
					OFFSET 0 0 0
					CHANNELS 3 Zrotation Yrotation Xrotation
					JOINT Neck1
					{
						OFFSET -0.10699 1.82066 0.27584
						CHANNELS 3 Zrotation Yrotation Xrotation
						JOINT Head
						{
							OFFSET 0.14949 1.84747 -0.32279
							CHANNELS 3 Zrotation Yrotation Xrotation
							End Site
							{
								OFFSET 0.04969 1.88916 -0.14562
							}
						}
					}
				}
				JOINT LeftShoulder
				{
					OFFSET 0 0 0
					CHANNELS 3 Zrotation Yrotation Xrotation
					JOINT LeftArm
					{
						OFFSET 3.73629 1.27211 -0.12847
						CHANNELS 3 Zrotation Yrotation Xrotation
						JOINT LeftForeArm
						{
							OFFSET 5.10995 -0.00000 0.00000
							CHANNELS 3 Zrotation Yrotation Xrotation
							JOINT LeftHand
							{
								OFFSET 3.21207 -0.00000 0.00000
								CHANNELS 3 Zrotation Yrotation Xrotation
								JOINT LeftFingerBase
								{
									OFFSET 0 0 0
									CHANNELS 3 Zrotation Yrotation Xrotation
									JOINT LeftHandIndex1
									{
										OFFSET 0.63349 -0.00000 0.00000
										CHANNELS 3 Zrotation Yrotation Xrotation
										End Site
										{
											OFFSET 0.51074 -0.00000 0.00000
										}
									}
								}
								JOINT LThumb
								{
									OFFSET 0 0 0
									CHANNELS 3 Zrotation Yrotation Xrotation
									End Site
									{
										OFFSET 0.51853 -0.00000 0.51853
									}
								}
							}
						}
					}
				}
				JOINT RightShoulder
				{
					OFFSET 0 0 0
					CHANNELS 3 Zrotation Yrotation Xrotation
					JOINT RightArm
					{
						OFFSET -3.70251 1.29541 -0.35354
						CHANNELS 3 Zrotation Yrotation Xrotation
						JOINT RightForeArm
						{
							OFFSET -5.25109 -0.00000 0.00000
							CHANNELS 3 Zrotation Yrotation Xrotation
							JOINT RightHand
							{
								OFFSET -3.28364 -0.00000 0.00000
								CHANNELS 3 Zrotation Yrotation Xrotation
								JOINT RightFingerBase
								{
									OFFSET 0 0 0
									CHANNELS 3 Zrotation Yrotation Xrotation
									JOINT RightHandIndex1
									{
										OFFSET -0.59974 -0.00000 0.00000
										CHANNELS 3 Zrotation Yrotation Xrotation
										End Site
										{
											OFFSET -0.48353 -0.00000 0.00000
										}
									}
								}
								JOINT RThumb
								{
									OFFSET 0 0 0
									CHANNELS 3 Zrotation Yrotation Xrotation
									End Site
									{
										OFFSET -0.49091 -0.00000 0.49091
									}
								}
							}
						}
					}
				}
			}
		}
	}
}
MOTION
Frames: 12
Frame Time: 0.028169
0.00 0.00 0.00 0 0 0 0 0 0 -21 0 0 0 0 0 0 0 0 0 0 0 0 0 0 21 0 0 0 0 0 0 0 0 0 0 0 0 0 0 0 0 0 0 0 0 0 0 -16 0 0 21 0 0 11 0 0 0 -8 0 0 0 0 0 0 0 0 0 0 0 0 0 0 0 0 0 0 0 0 8 0 0 0 0 0 0 0 0 0 0 0 0 0 0 0 0 0
0.00 0.00 0.00 -57.1430 -84.8884 65.0808 0.0000 0.0000 0.0000 -11.0789 0.2008 -28.8344 7.1313 15.4415 49.3693 1.0877 -2.1260 -19.1180 0.0981 -2.0198 -5.5605 0.0000 0.0000 0.0000 28.4390 12.4025 -30.5420 -4.1157 -12.3128 36.8478 -0.5032 1.1096 -13.0613 -0.8095 -5.7419 16.0373 4.3243 1.4655 10.6714 1.8328 2.4462 1.5833 -0.8624 1.1207 -4.2252 -2.7754 11.0296 -15.7178 1.3670 15.4757 18.8417 2.6069 7.2281 8.0801 0.0000 -0.0000 0.0000 -86.3355 0.0093 71.9544 88.6516 -59.9931 -58.8323 -0.0000 0.0000 -1.2507 35.0407 8.8538 6.1603 -7.1250 0.0000 -0.0000 7.1949 40.6481 -0.7767 0.0000 -0.0000 0.0000 78.4640 2.6048 70.7820 -98.5287 59.7234 -67.3792 0.0000 -0.0000 -8.8637 -40.0206 20.6059 -16.4639 7.1250 -0.0000 -0.0000 -7.1281 -4.0034 -6.6658
0.00 0.00 0.00 -6.3287 -77.9623 14.0321 0.0000 0.0000 0.0000 -19.2799 5.4904 -3.6328 4.4297 12.7112 38.2969 0.1439 -1.7693 -6.7682 0.4950 -4.5108 -12.5182 0.0000 0.0000 0.0000 22.2590 10.3905 -37.8575 -4.0839 -12.2712 36.6981 -0.0812 -4.8204 -9.1708 -0.8086 -5.7387 16.0281 2.3842 0.2643 6.8678 2.0577 0.5897 0.1754 0.7300 0.2563 -3.6693 -2.4569 9.9818 -15.7194 1.8020 13.9639 22.3449 2.7085 6.4328 9.3046 -0.0000 0.0000 0.0000 -86.4541 -1.3932 73.2872 105.0423 -59.1275 -72.9888 -0.0000 -0.0000 8.9669 40.1783 7.9381 6.6516 -7.1250 0.0000 -0.0000 11.7121 40.0511 -1.4517 -0.0000 0.0000 0.0000 77.8584 4.0548 69.7992 -114.1781 57.6716 -80.7752 0.0000 -0.0000 -3.4242 -44.3421 23.7549 -21.4886 7.1250 -0.0000 -0.0000 -8.9785 1.2860 -9.2916
0.00 0.00 0.00 7.3577 -73.6064 1.5096 0.0000 0.0000 0.0000 -23.1796 6.9585 1.8579 1.6919 8.1924 23.3000 1.4559 -3.6499 -21.9137 1.1795 -6.8927 -19.3980 0.0000 0.0000 0.0000 14.5377 11.6831 -47.6167 -5.6209 -14.0506 43.4404 0.1656 -8.7766 -8.5673 -0.9478 -6.2001 17.3663 -2.1291 0.3286 6.4678 1.4514 0.3251 -0.2204 2.6683 0.2152 -3.8781 -2.4074 8.7003 -15.5336 2.4416 12.0021 21.7721 2.6543 5.6240 9.0783 0.0000 0.0000 0.0000 -85.8622 -1.9185 73.5236 110.8648 -58.2894 -77.9656 -0.0000 -0.0000 17.0431 40.6716 4.6257 3.9641 -7.1250 0.0000 -0.0000 11.7177 35.8574 -2.6790 0.0000 0.0000 0.0000 77.3185 5.0660 70.3112 -119.4337 56.4590 -85.1873 0.0000 0.0000 3.3635 -46.0286 25.4802 -24.0335 7.1250 -0.0000 -0.0000 -9.5025 4.0652 -10.2906
0.00 0.00 0.00 7.2776 -77.2393 -2.3505 0.0000 0.0000 0.0000 -25.1934 7.9691 9.1560 1.4093 7.5086 21.2312 1.8811 8.7706 -30.3079 0.8315 -5.8173 -16.2552 0.0000 0.0000 0.0000 14.0182 14.1897 -48.1974 -8.5927 -16.5383 54.6704 -0.3966 0.6189 -11.6960 -0.6305 -5.0806 14.1387 -5.9882 -1.4022 2.0370 -0.8729 -2.2244 -3.6110 2.5798 -0.9239 -4.7042 -3.3161 9.4287 -15.5664 8.4514 11.6181 27.5677 5.0870 5.8767 10.6496 -0.0000 -0.0000 0.0000 -86.3336 -5.2847 78.2877 125.5663 -54.6343 -90.2464 -0.0000 -0.0000 23.7440 45.6020 -0.5379 -0.5493 -7.1250 0.0000 -0.0000 14.7620 29.0572 -5.9142 -0.0000 -0.0000 0.0000 75.3265 7.8534 73.5707 -131.0259 52.5733 -94.6429 0.0000 0.0000 14.7439 -56.9143 30.6749 -38.0617 7.1250 -0.0000 -0.0000 -13.7638 16.2380 -17.4883
0.00 0.00 0.00 -6.1373 -83.4863 5.7107 0.0000 0.0000 0.0000 -20.4564 11.7350 9.0979 4.0032 12.1647 36.3171 1.1332 2.7680 -21.2812 2.7339 -10.2513 -29.7944 0.0000 0.0000 0.0000 20.5414 14.9030 -38.7984 -9.1553 -16.9066 56.6258 -0.8023 4.6061 -15.9986 -0.4765 -4.4267 12.2803 -4.4386 -1.6971 1.1152 -0.6599 -2.4704 -3.2808 1.9104 -1.1205 -3.8560 -3.1114 11.5380 -14.4927 10.5782 13.8601 29.0699 6.0340 7.1337 10.6478 -0.0000 -0.0000 0.0000 -86.4652 -10.1264 79.7590 132.8178 -51.7938 -96.0585 -0.0000 -0.0000 32.3181 46.9165 -3.0488 -3.2549 -7.1250 0.0000 -0.0000 15.1905 25.4779 -7.4289 -0.0000 -0.0000 0.0000 75.5127 13.0986 73.6822 -136.2520 50.1402 -98.7267 0.0000 0.0000 20.7911 -60.9051 32.1909 -43.7517 7.1250 -0.0000 -0.0000 -15.2667 20.8228 -20.2517
0.00 0.00 0.00 -38.4717 -86.4750 34.4214 0.0000 0.0000 0.0000 -16.6940 12.3230 4.5813 7.5953 15.8134 51.0915 0.0764 -3.2267 -5.0745 1.9224 -8.7026 -24.8693 0.0000 0.0000 0.0000 24.7006 14.1501 -31.8678 -8.9343 -16.7653 55.8627 -0.9409 6.1468 -17.3026 -0.4172 -4.1457 11.4869 -2.3251 -1.4382 1.5555 -0.4636 -2.0433 -2.8988 0.9226 -0.9677 -3.7922 -3.1299 12.5262 -13.9741 11.8891 14.8161 30.4580 6.6407 7.6811 10.8459 0.0000 -0.0000 0.0000 -86.6244 -13.1458 79.5255 135.1572 -50.6912 -97.8829 -0.0000 -0.0000 39.6771 46.7200 -2.1254 -2.2553 -7.1250 0.0000 -0.0000 15.2536 26.7915 -6.9739 0.0000 -0.0000 0.0000 75.4473 15.7139 73.0518 -138.0940 49.1595 -100.1306 0.0000 0.0000 26.6065 -62.5652 30.9704 -44.7492 7.1250 -0.0000 -0.0000 -16.5687 20.7237 -22.0756
0.00 0.00 0.00 -115.8800 -85.3934 107.6720 0.0000 0.0000 0.0000 -11.8028 11.8076 -3.6936 13.0419 18.7972 69.2555 -0.2334 -8.6323 4.5820 0.0113 -0.6875 -1.8894 0.0000 0.0000 0.0000 29.2296 12.9165 -23.9520 -8.5913 -16.5374 54.6656 -1.0740 8.1510 -18.5547 -0.3623 -3.8664 10.7012 1.0587 -0.8278 2.9897 0.2051 -1.0567 -2.0833 -0.3155 -0.5544 -3.8364 -3.3650 13.4738 -13.6599 12.5789 16.0139 31.1512 7.0335 8.2707 10.8284 0.0000 -0.0000 0.0000 -87.1444 -18.9591 80.3134 137.6440 -49.4054 -99.7895 -0.0000 -0.0000 42.0625 47.7953 -1.6583 -1.8277 -7.1250 0.0000 -0.0000 16.1521 27.3853 -7.1802 0.0000 -0.0000 0.0000 74.4423 19.9751 72.5163 -140.8870 47.5356 -102.2179 0.0000 0.0000 27.7813 -62.5134 30.7157 -44.4725 7.1250 -0.0000 -0.0000 -16.6342 20.3877 -22.1152
0.00 0.00 0.00 -147.1690 -80.6985 133.0780 0.0000 0.0000 0.0000 -5.8107 11.1946 -23.8018 19.2337 19.9859 87.7590 0.2622 -8.1466 -10.0362 0.0387 -1.2690 -3.4893 0.0000 0.0000 0.0000 32.4132 10.8915 -13.8275 -8.4403 -16.4337 54.1335 -1.3297 10.0111 -20.7607 -0.2957 -3.4968 9.6650 5.0246 -0.0675 6.5139 0.8452 0.3083 -0.1541 -1.9752 0.0559 -3.7958 -3.7724 14.2670 -13.7356 13.0796 17.1456 31.1312 7.3359 8.8321 10.6164 0.0000 0.0000 0.0000 -87.8293 -30.1236 80.8452 137.2192 -49.6338 -99.4664 -0.0000 -0.0000 35.4026 46.6182 -5.4444 -5.7331 -7.1250 0.0000 -0.0000 14.4502 22.1512 -8.1925 0.0000 0.0000 0.0000 74.6165 27.4277 70.5038 -142.0384 46.8148 -103.0624 0.0000 0.0000 24.8098 -62.6961 32.8241 -46.3985 7.1250 -0.0000 -0.0000 -15.9416 22.9181 -21.5052
0.00 0.00 0.00 -143.6820 -79.7195 126.4750 0.0000 0.0000 0.0000 -4.6834 5.4966 -44.0763 15.1538 19.4273 75.6996 0.6382 -8.6501 -14.5789 0.4289 -4.2031 -11.6487 0.0000 0.0000 0.0000 32.6892 7.4789 -7.4667 -7.5651 -15.7899 50.9806 -1.5024 10.0505 -22.0339 -0.1842 -2.7645 7.6237 7.5782 -0.2782 10.3241 2.1172 0.4433 1.7313 -2.1055 0.0835 -3.9350 -4.0289 14.4709 -14.4776 11.8668 17.9584 30.2903 7.0223 9.0787 10.4842 0.0000 -0.0000 0.0000 -89.6262 -36.5374 75.9385 122.4569 -55.6189 -87.6950 -0.0000 -0.0000 23.9606 43.5919 -5.6019 -5.3094 -7.1250 0.0000 -0.0000 12.2965 22.3187 -6.8608 0.0000 -0.0000 0.0000 79.0025 28.7783 64.4643 -133.3133 51.5685 -96.4473 0.0000 0.0000 19.3297 -60.0232 30.9160 -41.6924 7.1250 -0.0000 -0.0000 -15.2780 18.7019 -19.9419
0.00 0.00 0.00 -140.1150 -80.1474 122.6210 0.0000 0.0000 0.0000 -5.1337 3.1321 -49.7723 11.4949 18.1689 64.3786 0.6206 -8.3508 -14.3414 0.5818 -4.8842 -13.5784 0.0000 0.0000 0.0000 32.2783 6.7370 -5.5629 -6.9195 -15.2637 48.5693 -1.4946 9.2534 -21.9198 -0.1326 -2.3474 6.4667 7.9051 -0.3746 11.6200 2.6596 0.4365 2.2178 -1.7203 0.0639 -4.1408 -4.0285 14.4532 -14.8652 11.3268 18.1293 29.8550 6.8596 9.1147 10.4484 -0.0000 0.0000 0.0000 -90.2286 -38.1098 72.8924 107.2260 -58.8485 -74.8605 -0.0000 -0.0000 19.9393 41.3354 -4.9476 -4.3383 -7.1250 0.0000 -0.0000 10.8009 23.4238 -5.7157 -0.0000 0.0000 0.0000 82.4272 27.5338 61.3088 -123.8453 55.1950 -88.8380 0.0000 0.0000 14.0363 -57.2138 29.4490 -37.3542 7.1250 -0.0000 -0.0000 -14.3319 14.9839 -18.0359
0.00 0.00 0.00 -136.6790 -80.5584 119.0430 0.0000 0.0000 0.0000 -5.7030 1.8109 -53.3311 8.6621 16.5853 54.9142 0.6081 -7.0784 -14.0143 0.6797 -5.2715 -14.6846 0.0000 0.0000 0.0000 31.9239 6.2974 -4.3743 -6.4910 -14.8878 46.9218 -1.4977 8.2874 -21.9042 -0.0762 -1.7806 4.8996 8.0383 -0.4247 12.5827 3.0821 0.4395 2.6719 -1.3513 0.0565 -4.1916 -4.0266 14.3861 -15.1731 10.8847 18.1930 29.2655 6.6980 9.1205 10.3395 0.0000 -0.0000 0.0000 -89.7032 -39.6948 70.1975 90.2758 -59.9997 -60.2388 -0.0000 -0.0000 16.7073 37.6254 -5.1117 -3.9288 -7.1250 0.0000 -0.0000 8.0872 23.5475 -4.2235 0.0000 -0.0000 0.0000 85.9377 26.2713 58.2419 -111.7872 58.1282 -78.7497 0.0000 0.0000 10.0779 -53.4795 27.8970 -32.2862 7.1250 -0.0000 -0.0000 -12.8718 10.7594 -15.4040
